<svg width="120" height="120" viewBox="0 0 120 120" fill="none" xmlns="http://www.w3.org/2000/svg">
<circle cx="60" cy="60" r="60" fill="#919EAB" fill-opacity="0.16"/>
<path d="M80.9565 80.1674C80.2365 78.2474 77.4765 77.7074 76.0965 79.2074C75.3165 74.5274 79.0965 59.8274 70.7565 60.0074C27.0765 59.7074 41.8365 55.2074 39.3165 106.627C39.2565 109.507 41.7765 112.027 44.6565 111.967H70.7565C79.1565 112.207 75.3165 97.2674 76.0965 92.5274C77.8365 94.4474 81.3165 93.0074 81.1965 90.4274C81.1365 89.8274 81.4365 80.5274 80.9565 80.1674ZM79.4565 91.1474H76.0965V80.7074H79.4565V91.1474Z" fill="url(#paint0_linear_8429_53170)"/>
<path d="M44.6558 114.127C44.7158 117.667 39.1358 117.667 39.1958 114.127C39.1358 110.587 44.7158 110.587 44.6558 114.127ZM72.4958 111.427C68.9558 111.367 68.9558 116.947 72.4958 116.887C76.0358 116.947 76.0358 111.367 72.4958 111.427Z" fill="url(#paint1_linear_8429_53170)"/>
<path d="M43.875 59.7075H45.375V112.208H43.875V59.7075ZM48.135 112.148H49.635V59.7075H48.135V112.148ZM52.335 112.148H53.835V59.7075H52.335V112.148ZM56.595 112.148H58.095V59.7075H56.595V112.148ZM60.795 112.148H62.295V59.7075H60.795V112.148ZM65.055 112.148H66.555V59.7075H65.055V112.148ZM69.255 59.7075V112.208H70.755V59.7075H69.255Z" fill="#007B55"/>
<path d="M84.0155 36.5474L82.9355 40.5674C80.9555 40.0274 78.5555 40.1474 76.5755 40.7474C76.6955 38.8274 76.5755 36.9674 76.2155 35.1074L65.8355 30.6074C64.6355 39.1274 66.6755 43.5674 70.2755 50.2874L64.0955 53.1674C63.0755 55.6274 61.6355 55.5674 59.8355 53.0474C56.0555 58.0874 50.6555 48.9674 45.0155 52.8674L44.1155 48.9074L40.3955 49.0274C37.3955 42.9074 32.5955 27.0674 39.6755 22.6874C39.6755 22.6874 39.6755 22.7474 39.7355 22.7474C41.5355 21.5474 43.6955 20.7074 45.7955 20.1074L50.8955 26.4674C54.2555 19.8074 55.3355 17.5874 63.8555 18.7874L81.0155 28.7474C83.6555 30.1274 85.0355 33.5474 84.0155 36.5474Z" fill="#00AB55"/>
<path fill-rule="evenodd" clip-rule="evenodd" d="M64.5761 31.6275H64.6361V33.0075H64.5761V40.4475C64.5761 41.0475 64.0361 41.5875 63.4361 41.5875C62.4161 41.2875 57.9761 42.4275 58.0961 40.4475V29.5875C58.0961 28.9875 58.6361 28.4475 59.2361 28.4475C59.4161 28.4475 63.8561 28.3875 63.8561 28.5075C64.9961 28.8675 64.5161 30.7875 64.5761 31.6275ZM62.1761 31.6875C62.1761 33.0075 60.1961 33.0075 60.1961 31.6875C60.1961 30.4275 62.1761 30.4275 62.1761 31.6875Z" fill="#C8FACD"/>
<path d="M78.4951 55.0875L70.7551 88.9875C71.5351 89.7075 74.8951 95.8275 74.8951 96.9075C73.8151 100.388 67.1551 96.9075 65.3551 94.9275C64.3951 90.7875 68.9551 65.6475 68.6551 60.9675C66.3151 60.7875 62.4151 61.2075 60.1951 61.4475C56.2351 61.5675 50.7751 60.6675 46.7551 60.9675L46.6351 61.7475L49.8751 88.8675H49.7551C49.9351 88.9875 50.1751 89.1675 50.4151 89.3475C50.4151 90.4875 51.3151 93.9675 50.5951 94.9875C48.5551 97.2075 45.0751 98.5275 42.4951 98.4075C41.4751 98.3475 40.7551 97.2075 41.1751 96.2475C41.2351 96.1875 44.8351 89.0475 44.9551 89.3475H44.7151L36.9151 55.0875C36.3151 52.5075 37.8151 49.6875 40.3351 48.8475C40.3351 48.9075 40.3951 48.9675 40.3951 49.0275L44.1151 48.9075L45.0151 52.8675C45.2551 52.7475 45.4351 52.6875 45.6751 52.5675C46.2151 52.3875 46.7551 52.2075 47.2951 52.0875C51.7351 50.4075 56.1751 57.7275 59.8351 52.9875C61.6351 55.5075 63.0751 55.5675 64.0951 53.1075L68.6551 51.0075C69.0151 50.4075 69.5551 49.8675 70.0951 49.5075C70.2151 49.8075 70.3951 50.1075 70.5751 50.2875C73.3351 50.1075 75.4951 49.4475 78.0751 51.6675C78.6151 52.6875 78.7351 53.9475 78.4951 55.0875Z" fill="#005249"/>
<path d="M43.6352 14.1675C43.6352 13.6875 43.6952 13.2675 43.7552 12.8475C43.1552 12.3075 43.6352 9.72751 44.5352 10.8675C44.8352 10.3275 45.1952 9.90751 45.6752 9.48751C47.3552 13.1475 52.7552 11.1675 55.5752 10.7475C56.4752 12.1275 56.7752 13.9875 56.4152 15.6075C62.1752 -1.31249 37.9352 -1.01249 43.7552 15.3675C43.6952 15.0075 43.6352 14.5875 43.6352 14.1675Z" fill="#005249"/>
<path d="M50.8952 26.3475L45.7952 19.9875C45.7352 19.9875 45.6752 20.0475 45.6152 20.0475L45.4952 18.6675C44.0552 17.2275 43.3352 14.8875 43.8152 12.8475C43.2152 12.3075 43.6952 9.72755 44.5952 10.8675C44.8952 10.3275 45.2552 9.90755 45.7352 9.48755C47.4152 13.1475 52.8152 11.1675 55.6352 10.7475C57.3752 13.3275 56.7152 17.2875 54.3152 19.1475L54.4352 20.1675C54.3152 20.1075 50.8952 26.3475 50.8952 26.3475ZM76.5752 40.6875C76.5752 40.5676 76.5752 40.3876 76.5752 40.2676C76.4552 42.3076 75.9752 44.3475 75.2552 46.3276C74.4152 46.5076 70.7552 46.1475 70.2152 46.9875C69.3152 47.8275 70.0952 50.1676 71.1152 50.5275C73.8152 49.5676 75.7352 49.8076 78.1352 51.6676L82.4552 40.5075C80.5352 40.0275 78.3752 40.1476 76.5752 40.6875ZM64.4552 34.8076C62.1752 33.1276 52.2752 40.5076 49.0352 40.9276C47.4752 43.1476 47.9552 45.3675 49.6352 47.6475C52.8752 46.2675 56.5952 43.7475 60.3152 40.8075L63.7952 39.9075C66.1352 39.3675 66.6152 35.8876 64.4552 34.8076Z" fill="#FBCDBE"/>
<defs>
<linearGradient id="paint0_linear_8429_53170" x1="38.8516" y1="59.7856" x2="38.8516" y2="111.97" gradientUnits="userSpaceOnUse">
<stop stop-color="#5BE584"/>
<stop offset="1" stop-color="#007B55"/>
</linearGradient>
<linearGradient id="paint1_linear_8429_53170" x1="57.1716" y1="168.252" x2="57.1716" y2="111.416" gradientUnits="userSpaceOnUse">
<stop stop-color="#5BE584"/>
<stop offset="1" stop-color="#007B55"/>
</linearGradient>
</defs>
</svg>
