<svg width="120" height="120" viewBox="0 0 120 120" fill="none" xmlns="http://www.w3.org/2000/svg">
<circle cx="60" cy="60" r="60" fill="#919EAB" fill-opacity="0.16"/>
<path fill-rule="evenodd" clip-rule="evenodd" d="M29.2583 100.284H85.1809C87.0773 100.281 88.8954 99.5272 90.2364 98.1862C91.5773 96.8452 92.3316 95.0271 92.3338 93.1307V29.1079L81.2851 20.3014H29.2583C27.3619 20.3035 25.5438 21.0578 24.2029 22.3988C22.8619 23.7398 22.1076 25.5579 22.1055 27.4543V93.1307C22.1076 95.0271 22.8619 96.8452 24.2029 98.1862C25.5438 99.5272 27.3619 100.281 29.2583 100.284ZM83.4638 29.3913H92.1186C92.1495 29.3913 92.1796 29.3817 92.2048 29.3637C92.23 29.3458 92.249 29.3205 92.2592 29.2913C92.2693 29.2621 92.2702 29.2305 92.2615 29.2008C92.2529 29.1711 92.2353 29.1449 92.211 29.1257L81.3229 20.5C81.301 20.4826 81.2746 20.4718 81.2468 20.4687C81.2189 20.4656 81.1908 20.4705 81.1656 20.4826C81.1404 20.4948 81.1192 20.5139 81.1043 20.5376C81.0894 20.5613 81.0815 20.5887 81.0815 20.6167V27.009C81.0815 27.3218 81.1432 27.6316 81.2629 27.9206C81.3826 28.2097 81.5581 28.4723 81.7793 28.6935C82.0005 28.9147 82.2631 29.0902 82.5522 29.2099C82.8412 29.3297 83.151 29.3913 83.4638 29.3913Z" fill="#212B36"/>
<g opacity="0.4">
<path d="M73.5127 41.4576H36.0128C35.8563 41.4578 35.7012 41.4271 35.5566 41.3673C35.4119 41.3075 35.2804 41.2198 35.1697 41.1092C35.0589 40.9986 34.9711 40.8672 34.9111 40.7226C34.8512 40.578 34.8203 40.423 34.8203 40.2665C34.8203 40.1099 34.8512 39.9549 34.9111 39.8103C34.9711 39.6657 35.0589 39.5344 35.1697 39.4237C35.2804 39.3131 35.4119 39.2254 35.5566 39.1656C35.7012 39.1058 35.8563 39.0751 36.0128 39.0753H73.5127C73.8286 39.0753 74.1315 39.2008 74.3549 39.4242C74.5783 39.6476 74.7038 39.9506 74.7038 40.2665C74.7038 40.5824 74.5783 40.8854 74.3549 41.1087C74.1315 41.3321 73.8286 41.4576 73.5127 41.4576Z" fill="#919EAB"/>
<path d="M78.4263 45.4777H36.0129C35.8565 45.4777 35.7016 45.4469 35.5571 45.3871C35.4126 45.3272 35.2813 45.2395 35.1707 45.1288C35.06 45.0182 34.9723 44.8869 34.9124 44.7424C34.8526 44.5979 34.8218 44.443 34.8218 44.2866C34.8218 44.1302 34.8526 43.9753 34.9124 43.8307C34.9723 43.6862 35.06 43.5549 35.1707 43.4443C35.2813 43.3337 35.4126 43.246 35.5571 43.1861C35.7016 43.1262 35.8565 43.0954 36.0129 43.0954H78.4263C78.5827 43.0954 78.7376 43.1262 78.8821 43.1861C79.0266 43.246 79.1579 43.3337 79.2685 43.4443C79.3791 43.5549 79.4669 43.6862 79.5267 43.8307C79.5866 43.9753 79.6174 44.1302 79.6174 44.2866C79.6174 44.443 79.5866 44.5979 79.5267 44.7424C79.4669 44.8869 79.3791 45.0182 79.2685 45.1288C79.1579 45.2395 79.0266 45.3272 78.8821 45.3871C78.7376 45.4469 78.5827 45.4777 78.4263 45.4777Z" fill="#919EAB"/>
</g>
<g opacity="0.2">
<path d="M73.5127 59.4736H36.0128C35.8563 59.4738 35.7012 59.4431 35.5566 59.3833C35.4119 59.3235 35.2804 59.2358 35.1697 59.1252C35.0589 59.0146 34.9711 58.8832 34.9111 58.7386C34.8512 58.594 34.8203 58.439 34.8203 58.2825C34.8203 58.1259 34.8512 57.9709 34.9111 57.8263C34.9711 57.6817 35.0589 57.5503 35.1697 57.4397C35.2804 57.3291 35.4119 57.2414 35.5566 57.1816C35.7012 57.1218 35.8563 57.0911 36.0128 57.0913H73.5127C73.8286 57.0913 74.1315 57.2168 74.3549 57.4402C74.5783 57.6636 74.7038 57.9665 74.7038 58.2825C74.7038 58.5984 74.5783 58.9013 74.3549 59.1247C74.1315 59.3481 73.8286 59.4736 73.5127 59.4736Z" fill="#919EAB"/>
<path d="M78.4263 63.4937H36.0129C35.8565 63.4937 35.7016 63.4629 35.5571 63.403C35.4126 63.3432 35.2813 63.2554 35.1707 63.1448C35.06 63.0342 34.9723 62.9029 34.9124 62.7584C34.8526 62.6139 34.8218 62.459 34.8218 62.3026C34.8218 62.1462 34.8526 61.9913 34.9124 61.8467C34.9723 61.7022 35.06 61.5709 35.1707 61.4603C35.2813 61.3497 35.4126 61.262 35.5571 61.2021C35.7016 61.1422 35.8565 61.1114 36.0129 61.1114H78.4263C78.5827 61.1114 78.7376 61.1422 78.8821 61.2021C79.0266 61.262 79.1579 61.3497 79.2685 61.4603C79.3791 61.5709 79.4669 61.7022 79.5267 61.8467C79.5866 61.9913 79.6174 62.1462 79.6174 62.3026C79.6174 62.459 79.5866 62.6139 79.5267 62.7584C79.4669 62.9029 79.3791 63.0342 79.2685 63.1448C79.1579 63.2554 79.0266 63.3432 78.8821 63.403C78.7376 63.4629 78.5827 63.4937 78.4263 63.4937Z" fill="#919EAB"/>
</g>
<g opacity="0.08">
<path d="M73.5128 77.4897H36.0129C35.697 77.4897 35.394 77.3642 35.1707 77.1408C34.9473 76.9175 34.8218 76.6145 34.8218 76.2986C34.8218 75.9827 34.9473 75.6797 35.1707 75.4563C35.394 75.2329 35.697 75.1074 36.0129 75.1074H73.5128C73.8287 75.1074 74.1317 75.2329 74.3551 75.4563C74.5784 75.6797 74.7039 75.9827 74.7039 76.2986C74.7039 76.6145 74.5784 76.9175 74.3551 77.1408C74.1317 77.3642 73.8287 77.4897 73.5128 77.4897Z" fill="#919EAB"/>
<path d="M78.4261 81.5098H36.0128C35.8563 81.51 35.7012 81.4793 35.5566 81.4195C35.4119 81.3597 35.2804 81.272 35.1697 81.1614C35.0589 81.0508 34.9711 80.9194 34.9111 80.7748C34.8512 80.6302 34.8203 80.4752 34.8203 80.3187C34.8203 80.1621 34.8512 80.0071 34.9111 79.8625C34.9711 79.7179 35.0589 79.5866 35.1697 79.4759C35.2804 79.3653 35.4119 79.2776 35.5566 79.2178C35.7012 79.158 35.8563 79.1274 36.0128 79.1275H78.4261C78.742 79.1275 79.045 79.253 79.2684 79.4764C79.4918 79.6998 79.6173 80.0028 79.6173 80.3187C79.6173 80.6346 79.4918 80.9376 79.2684 81.1609C79.045 81.3843 78.742 81.5098 78.4261 81.5098Z" fill="#919EAB"/>
</g>
<path d="M92.119 29.3912H83.4643C83.1515 29.3912 82.8417 29.3296 82.5527 29.2099C82.2636 29.0902 82.001 28.9147 81.7798 28.6935C81.5586 28.4723 81.3831 28.2097 81.2634 27.9206C81.1436 27.6316 81.082 27.3218 81.082 27.009V20.6167C81.082 20.5887 81.0899 20.5613 81.1048 20.5376C81.1197 20.5138 81.1409 20.4948 81.1661 20.4826C81.1913 20.4704 81.2194 20.4656 81.2472 20.4687C81.2751 20.4717 81.3014 20.4826 81.3234 20.5L92.2115 29.1256C92.2357 29.1448 92.2534 29.1711 92.262 29.2008C92.2707 29.2305 92.2698 29.2621 92.2597 29.2913C92.2495 29.3205 92.2305 29.3458 92.2053 29.3637C92.1801 29.3816 92.15 29.3912 92.119 29.3912V29.3912Z" fill="#DFE3E8"/>
<path d="M38.3863 25.95C38.3863 29.3024 37.3922 32.5795 35.5297 35.3669C33.6673 38.1543 31.02 40.3268 27.9228 41.6098C24.8256 42.8927 21.4175 43.2283 18.1296 42.5743C14.8416 41.9203 11.8214 40.306 9.45088 37.9355C7.08038 35.565 5.46604 32.5448 4.81203 29.2568C4.15801 25.9688 4.49367 22.5607 5.77658 19.4635C7.05948 16.3663 9.23201 13.7191 12.0194 11.8566C14.8068 9.9941 18.0839 9 21.4363 9C25.9313 9.00142 30.2418 10.7877 33.4202 13.9661C36.5987 17.1445 38.3849 21.455 38.3863 25.95V25.95Z" fill="#919EAB" fill-opacity="0.24"/>
<path d="M37.7848 25.9494C37.7848 29.183 36.8259 32.344 35.0294 35.0326C33.2329 37.7213 30.6795 39.8168 27.692 41.0543C24.7045 42.2917 21.4172 42.6155 18.2457 41.9846C15.0743 41.3538 12.1611 39.7967 9.87458 37.5102C7.58807 35.2237 6.03094 32.3105 5.40009 29.139C4.76925 25.9675 5.09302 22.6802 6.33047 19.6927C7.56792 16.7053 9.66346 14.1518 12.3521 12.3553C15.0408 10.5589 18.2018 9.59998 21.4354 9.59998C25.7711 9.60134 29.9288 11.3243 32.9946 14.3901C36.0604 17.4559 37.7834 21.6137 37.7848 25.9494V25.9494Z" fill="#C8FACD"/>
<mask id="mask0_8429_53097" style="mask-type:alpha" maskUnits="userSpaceOnUse" x="5" y="9" width="33" height="34">
<path d="M37.7848 25.9494C37.7848 29.183 36.8259 32.344 35.0294 35.0326C33.2329 37.7213 30.6795 39.8168 27.692 41.0543C24.7045 42.2917 21.4172 42.6155 18.2457 41.9846C15.0743 41.3538 12.1611 39.7967 9.87458 37.5102C7.58807 35.2237 6.03094 32.3105 5.40009 29.139C4.76925 25.9675 5.09302 22.6802 6.33047 19.6927C7.56792 16.7053 9.66346 14.1518 12.3521 12.3553C15.0408 10.5589 18.2018 9.59998 21.4354 9.59998C25.7711 9.60134 29.9288 11.3243 32.9946 14.3901C36.0604 17.4559 37.7834 21.6137 37.7848 25.9494V25.9494Z" fill="white"/>
</mask>
<g mask="url(#mask0_8429_53097)">
<path d="M21.6861 17.657C24.8673 17.657 27.4461 20.2358 27.4461 23.417L27.4462 24.0512C28.0299 24.1492 28.4747 24.6569 28.4747 25.2684V26.7084C28.4747 27.3309 28.0138 27.8458 27.4146 27.9305C27.2021 29.9676 25.9277 31.6889 24.1548 32.5312L24.1547 34.4227H24.5661C28.6562 34.4227 31.9718 37.7383 31.9718 41.8284V42.7541H11.4004V41.8284C11.4004 37.7383 14.716 34.4227 18.8061 34.4227H19.2175L19.2175 32.5312C17.4445 31.689 16.1701 29.9676 15.9575 27.9305C15.3584 27.8458 14.8975 27.3309 14.8975 26.7084V25.2684C14.8975 24.6568 15.3424 24.1491 15.9261 24.0512L15.9261 23.417C15.9261 20.2358 18.5049 17.657 21.6861 17.657Z" fill="#FBCDBE"/>
<path d="M16.6461 35.1784C16.6461 36.8531 18.9256 38.2106 21.7375 38.2106C24.5494 38.2106 26.829 36.8531 26.829 35.1784C26.829 35.0383 26.813 34.9004 26.7821 34.7653C29.7896 35.7071 31.9718 38.5156 31.9718 41.8337V42.7541H11.4004V41.8337C11.4004 38.4749 13.6364 35.6384 16.701 34.7314C16.6648 34.8774 16.6461 35.0266 16.6461 35.1784Z" fill="#007B55"/>
<path d="M16.6461 35.1784C16.6461 36.8531 18.9256 38.2106 21.7375 38.2106C24.5494 38.2106 26.829 36.8531 26.829 35.1784C26.829 35.0383 26.813 34.9004 26.7821 34.7653C29.7896 35.7071 31.9718 38.5156 31.9718 41.8337V42.7541H11.4004V41.8337C11.4004 38.4749 13.6364 35.6384 16.701 34.7314C16.6648 34.8774 16.6461 35.0266 16.6461 35.1784Z" fill="#5BE584"/>
<path opacity="0.24" d="M19.1133 29.3424C19.2583 30.3322 20.354 31.1312 21.6847 31.1312C23.0186 31.1312 24.1169 30.3272 24.2561 29.253C24.2666 29.2119 24.233 29.0741 24.0325 29.0741C21.9767 29.0741 20.4236 29.0741 19.3369 29.0741C19.1527 29.0741 19.0999 29.2017 19.1133 29.3424Z" fill="#007B55"/>
<path opacity="0.24" fill-rule="evenodd" clip-rule="evenodd" d="M20.4512 27.3254C20.4512 27.7799 21.0038 28.1483 21.6855 28.1483C22.3671 28.1483 22.9197 27.7799 22.9197 27.3254" fill="#007B55"/>
<path d="M19.0117 26.0912C19.3525 26.0912 19.6288 25.8149 19.6288 25.4741C19.6288 25.1332 19.3525 24.8569 19.0117 24.8569C18.6708 24.8569 18.3945 25.1332 18.3945 25.4741C18.3945 25.8149 18.6708 26.0912 19.0117 26.0912Z" fill="#007B55"/>
<path d="M24.3593 26.0912C24.7002 26.0912 24.9765 25.8149 24.9765 25.4741C24.9765 25.1332 24.7002 24.8569 24.3593 24.8569C24.0185 24.8569 23.7422 25.1332 23.7422 25.4741C23.7422 25.8149 24.0185 26.0912 24.3593 26.0912Z" fill="#007B55"/>
<path d="M17.5336 24.1532C17.9362 23.5866 19.0402 23.2689 19.9911 23.5024C20.1014 23.5295 20.2129 23.462 20.2399 23.3517C20.267 23.2414 20.1996 23.13 20.0892 23.1029C18.9849 22.8317 17.7066 23.1996 17.1982 23.9149C17.1324 24.0075 17.1541 24.1359 17.2467 24.2018C17.3393 24.2676 17.4678 24.2458 17.5336 24.1532Z" fill="#007B55"/>
<path d="M25.8375 24.1532C25.4348 23.5866 24.3309 23.2689 23.38 23.5024C23.2696 23.5295 23.1582 23.462 23.1311 23.3517C23.104 23.2414 23.1715 23.13 23.2819 23.1029C24.3862 22.8317 25.6645 23.1996 26.1729 23.9149C26.2387 24.0075 26.217 24.1359 26.1244 24.2018C26.0318 24.2676 25.9033 24.2458 25.8375 24.1532Z" fill="#007B55"/>
<path d="M21.6849 16.1141C25.5477 16.1141 28.6792 19.2456 28.6792 23.1084L28.6792 26.2717C28.7692 27.2799 28.8534 27.9862 28.9318 28.3906C29.0735 29.1213 29.5175 28.8803 29.5175 29.9196C29.5175 30.959 29.0723 31.3082 29.0704 32.2324C29.0684 33.1566 30.6541 33.8916 30.6541 35.0648C30.6541 36.238 29.9264 41.7745 22.67 41.7745C21.1199 41.7745 19.7995 41.3335 18.7089 40.4515C18.7792 41.119 18.8455 41.8866 18.9078 42.7541H14.0735C14.1694 40.3091 13.3242 38.9419 13.3242 36.2171C13.3242 33.4924 14.7269 29.5295 14.6906 28.5598C14.6927 28.4993 14.6948 28.4276 14.6971 28.3446C14.6927 28.2454 14.6906 28.1457 14.6906 28.0456V23.1084C14.6906 22.6999 14.7256 22.2996 14.7928 21.9103C14.7932 21.8984 14.7933 21.8863 14.7935 21.8741L14.7978 21.8821C15.3775 18.604 18.2404 16.1141 21.6849 16.1141ZM21.7363 19.4056H21.6335C18.5375 19.4056 16.0278 21.9153 16.0278 25.0113V27.377C16.0278 30.4729 18.5375 32.9827 21.6335 32.9827H21.7363C24.8323 32.9827 27.342 30.4729 27.342 27.377V25.0113C27.342 21.9153 24.8323 19.4056 21.7363 19.4056Z" fill="#00AB55"/>
<path fill-rule="evenodd" clip-rule="evenodd" d="M21.6857 17.2455C25.2077 17.2455 28.0629 20.0776 28.0629 23.5712C28.0629 23.9738 28.025 24.3676 27.9525 24.7493C27.7891 21.4297 25.0459 18.7883 21.6857 18.7883C18.3256 18.7883 15.5824 21.4297 15.4191 24.7493C15.3465 24.3676 15.3086 23.9738 15.3086 23.5712C15.3086 20.0776 18.1637 17.2455 21.6857 17.2455Z" fill="#007B55"/>
<path opacity="0.9" fill-rule="evenodd" clip-rule="evenodd" d="M28.4395 35.5015C28.4541 35.5344 28.4677 35.5679 28.4801 35.6021C28.9457 36.8813 27.6493 38.5275 25.5846 39.279C23.5198 40.0306 21.4685 39.6028 21.0029 38.3235C20.9905 38.2894 20.9793 38.2549 20.9694 38.2202C21.8121 38.8017 23.4778 38.8294 25.1936 38.2048C26.9064 37.5814 28.1632 36.4923 28.4379 35.5066L28.4395 35.5015ZM27.2452 33.9232C27.2522 33.9492 27.2581 33.9754 27.2628 34.002C27.4386 34.9992 25.9014 36.1038 23.8293 36.4692C21.7572 36.8345 19.9349 36.3223 19.7591 35.3251C19.7544 35.2985 19.7509 35.2719 19.7487 35.2451C20.4159 35.7578 21.9599 35.9354 23.6817 35.6318C25.4005 35.3287 26.7889 34.6356 27.2428 33.9269L27.2452 33.9232ZM27.4458 25.834V28.1997C27.4458 31.2957 24.936 33.8054 21.8401 33.8054H21.5315C18.4355 33.8054 15.9258 31.2957 15.9258 28.1997V25.834C15.9258 25.4536 15.9637 25.0821 16.0359 24.723C16.0311 24.8185 16.0286 24.9145 16.0286 25.0111V27.3769C16.0286 30.4728 18.5384 32.9826 21.6344 32.9826H21.7372C24.8332 32.9826 27.3429 30.4728 27.3429 27.3769V25.0111C27.3429 24.9145 27.3405 24.8185 27.3356 24.7231C27.4079 25.0821 27.4458 25.4536 27.4458 25.834Z" fill="#007B55"/>
</g>
<path d="M117.31 59.5406C117.31 63.1187 116.178 66.605 114.076 69.5007C111.974 72.3964 109.01 74.5529 105.608 75.6616C105.506 75.6939 105.404 75.7263 105.301 75.7571C104.861 75.8927 104.414 76.0083 103.959 76.1069C103.136 76.2854 102.301 76.4013 101.461 76.4536C101.096 76.4782 100.729 76.4906 100.36 76.4906C98.4513 76.4925 96.5564 76.1715 94.7552 75.5414C94.7029 75.5229 94.6505 75.5044 94.5996 75.4859C91.6813 74.4319 89.1082 72.5971 87.1608 70.1815C85.2133 67.7659 83.9663 64.8621 83.5555 61.7865C83.1447 58.711 83.5859 55.5817 84.8311 52.7396C86.0762 49.8976 88.0775 47.4518 90.6169 45.6688C93.1564 43.8858 96.1364 42.834 99.2324 42.628C102.328 42.422 105.422 43.0697 108.175 44.5005C110.928 45.9313 113.236 48.0904 114.847 50.7424C116.457 53.3945 117.309 56.4377 117.31 59.5406V59.5406Z" fill="#919EAB" fill-opacity="0.24"/>
<path d="M116.708 59.54C116.708 62.9913 115.616 66.3541 113.589 69.1472C111.561 71.9403 108.702 74.0204 105.421 75.0898C105.323 75.121 105.225 75.1522 105.125 75.1819C104.7 75.3127 104.269 75.4242 103.83 75.5193C103.037 75.6915 102.232 75.8033 101.421 75.8537C101.069 75.8775 100.715 75.8894 100.358 75.8894C98.5178 75.8912 96.6901 75.5817 94.9527 74.9738C94.9022 74.956 94.8517 74.9382 94.8026 74.9203C91.9877 73.9037 89.5058 72.1339 87.6274 69.8039C85.7489 67.4738 84.546 64.6729 84.1498 61.7064C83.7536 58.7398 84.1791 55.7214 85.3802 52.98C86.5812 50.2387 88.5116 47.8795 90.9611 46.1597C93.4105 44.4399 96.285 43.4253 99.2713 43.2266C102.258 43.0279 105.241 43.6527 107.897 45.0328C110.553 46.413 112.779 48.4955 114.332 51.0536C115.886 53.6116 116.708 56.5471 116.708 59.54V59.54Z" fill="#C8FACD"/>
<mask id="mask1_8429_53097" style="mask-type:alpha" maskUnits="userSpaceOnUse" x="84" y="43" width="33" height="33">
<path d="M116.708 59.54C116.708 62.9913 115.616 66.3541 113.589 69.1472C111.561 71.9403 108.702 74.0204 105.421 75.0898C105.323 75.121 105.225 75.1522 105.125 75.1819C104.7 75.3127 104.269 75.4242 103.83 75.5193C103.037 75.6915 102.232 75.8033 101.421 75.8537C101.069 75.8775 100.715 75.8894 100.358 75.8894C98.5178 75.8912 96.6901 75.5817 94.9527 74.9738C94.9022 74.956 94.8517 74.9382 94.8026 74.9203C91.9877 73.9037 89.5058 72.1339 87.6274 69.8039C85.7489 67.4738 84.546 64.6729 84.1498 61.7064C83.7536 58.7398 84.1791 55.7214 85.3802 52.98C86.5812 50.2387 88.5116 47.8795 90.9611 46.1597C93.4105 44.4399 96.285 43.4253 99.2713 43.2266C102.258 43.0279 105.241 43.6527 107.897 45.0328C110.553 46.413 112.779 48.4955 114.332 51.0536C115.886 53.6116 116.708 56.5471 116.708 59.54V59.54Z" fill="white"/>
</mask>
<g mask="url(#mask1_8429_53097)">
<path d="M100.131 51.2568C103.313 51.2568 105.891 53.8357 105.891 57.0168L105.891 57.6511C106.475 57.749 106.92 58.2567 106.92 58.8683V60.3083C106.92 60.9308 106.459 61.4457 105.86 61.5303C105.647 63.5674 104.373 65.2888 102.6 66.1311L102.6 68.0226H103.011C107.101 68.0226 110.417 71.3382 110.417 75.4283V76.354H89.8457V75.4283C89.8457 71.3382 93.1614 68.0226 97.2514 68.0226H97.6628L97.6628 66.1311C95.8899 65.2888 94.6154 63.5675 94.4028 61.5303C93.8037 61.4457 93.3428 60.9308 93.3428 60.3083V58.8683C93.3428 58.2567 93.7877 57.749 94.3714 57.651L94.3714 57.0168C94.3714 53.8357 96.9503 51.2568 100.131 51.2568Z" fill="#FBCDBE"/>
<path d="M103.011 68.0278C107.101 68.0278 110.417 71.3435 110.417 75.4335V76.3539H89.8457V75.4335C89.8457 71.3435 93.1614 68.0278 97.2514 68.0278L97.3741 68.0279C97.361 68.129 97.3543 68.232 97.3543 68.3364C97.3543 69.7566 98.5976 70.9078 100.131 70.9078C101.665 70.9078 102.909 69.7566 102.909 68.3364C102.909 68.232 102.902 68.129 102.889 68.0279L103.011 68.0278Z" fill="#C8FACD"/>
<path fill-rule="evenodd" clip-rule="evenodd" d="M96.4286 72.0854C96.4286 73.6498 96.6302 75.1116 96.9801 76.3541L89.8457 76.354V75.4336C89.8457 71.4544 92.9841 68.2082 96.9207 68.0352C96.6075 69.2292 96.4286 70.6118 96.4286 72.0854ZM110.417 75.4336V76.354L103.386 76.3541C103.735 75.1116 103.937 73.6498 103.937 72.0854C103.937 70.614 103.759 69.2333 103.446 68.0405C107.334 68.2656 110.417 71.4896 110.417 75.4336Z" fill="#00AB55"/>
<path fill-rule="evenodd" clip-rule="evenodd" d="M105.172 73.8855L106.155 73.1483C106.303 73.037 106.508 73.0388 106.654 73.1527L107.332 73.6798L105.172 73.8855Z" fill="#C8FACD"/>
<path fill-rule="evenodd" clip-rule="evenodd" d="M96.9425 67.9198C96.5311 69.9084 96.7025 72.7198 97.4568 76.3541H95.8111L94.3711 72.6512L94.9882 71.7255L94.3711 71.1084L96.3254 68.0227C96.5339 67.9578 96.7397 67.9235 96.9425 67.9198Z" fill="#005249"/>
<path fill-rule="evenodd" clip-rule="evenodd" d="M103.319 67.9198C103.731 69.9084 103.559 72.7198 102.805 76.3541H104.451L105.891 72.6512L105.273 71.7255L105.891 71.1084L103.936 68.0227C103.728 67.9578 103.522 67.9235 103.319 67.9198Z" fill="#005249"/>
<path fill-rule="evenodd" clip-rule="evenodd" d="M102.6 67.2552C103.296 67.728 103.731 68.3987 103.731 69.1425C103.731 69.9037 103.276 70.5883 102.55 71.0627L101.939 70.5813L101.468 70.6154L101.571 70.2913L101.563 70.285C102.191 69.9618 102.6 69.4318 102.6 68.8328L102.6 67.2552ZM98.6993 70.285L98.6913 70.2913L98.7941 70.6154L98.323 70.5813L97.712 71.0627C97.0003 70.5973 96.5485 69.9294 96.5317 69.1854L96.5312 69.1425C96.5312 68.3986 96.9661 67.728 97.6627 67.2551L97.6627 68.8328C97.6627 69.4318 98.0718 69.9618 98.6993 70.285Z" fill="#5BE584"/>
<path opacity="0.24" fill-rule="evenodd" clip-rule="evenodd" d="M98.6914 62.8796C98.6914 63.6749 99.3361 64.3196 100.131 64.3196C100.927 64.3196 101.571 63.6749 101.571 62.8796" fill="#005249"/>
<path opacity="0.24" fill-rule="evenodd" clip-rule="evenodd" d="M98.8965 60.9254C98.8965 61.3799 99.4491 61.7483 100.131 61.7483C100.812 61.7483 101.365 61.3799 101.365 60.9254" fill="#005249"/>
<path fill-rule="evenodd" clip-rule="evenodd" d="M96.0341 59.6451C96.224 60.0358 96.6516 60.3082 97.1488 60.3082C97.6441 60.3082 98.0705 60.0377 98.2614 59.6492C98.3182 59.5338 98.2374 59.4393 98.156 59.5093C97.9039 59.7261 97.5459 59.8614 97.1488 59.8614C96.764 59.8614 96.416 59.7344 96.1654 59.5294C96.0738 59.4545 95.9785 59.5308 96.0341 59.6451Z" fill="#005249"/>
<path fill-rule="evenodd" clip-rule="evenodd" d="M101.999 59.6451C102.189 60.0358 102.616 60.3082 103.114 60.3082C103.609 60.3082 104.035 60.0377 104.226 59.6492C104.283 59.5338 104.202 59.4393 104.121 59.5093C103.869 59.7261 103.511 59.8614 103.114 59.8614C102.729 59.8614 102.381 59.7344 102.13 59.5294C102.039 59.4545 101.943 59.5308 101.999 59.6451Z" fill="#005249"/>
<path d="M95.9789 57.7532C96.3816 57.1866 97.4855 56.8689 98.4364 57.1024C98.5468 57.1295 98.6582 57.062 98.6853 56.9517C98.7124 56.8413 98.6449 56.7299 98.5345 56.7028C97.4302 56.4316 96.1519 56.7996 95.6435 57.5149C95.5777 57.6075 95.5994 57.7359 95.692 57.8017C95.7846 57.8675 95.9131 57.8458 95.9789 57.7532Z" fill="#005249"/>
<path d="M104.285 57.7532C103.882 57.1866 102.778 56.8689 101.827 57.1024C101.717 57.1295 101.605 57.062 101.578 56.9517C101.551 56.8413 101.619 56.7299 101.729 56.7028C102.833 56.4316 104.112 56.7996 104.62 57.5149C104.686 57.6075 104.664 57.7359 104.572 57.8017C104.479 57.8675 104.351 57.8458 104.285 57.7532Z" fill="#005249"/>
<path d="M100.182 64.6118C99.0124 64.6507 98.4905 65.2167 98.0975 64.6415C97.8025 64.2098 97.926 63.4838 98.2016 63.0753C98.5938 62.494 99.1258 62.7752 99.7207 62.7089C99.8825 62.6909 100.045 62.6454 100.182 62.5711C100.32 62.6454 100.482 62.6909 100.644 62.7089C101.239 62.7752 101.771 62.494 102.163 63.0753C102.439 63.4838 102.562 64.2098 102.267 64.6415C101.874 65.2167 101.352 64.573 100.182 64.6118ZM105.862 57.6339C105.514 59.0816 105.354 60.5585 105.102 62.0229C105.049 62.3282 104.992 62.6324 104.931 62.9362C104.918 62.9999 104.905 63.2368 104.843 63.2668C104.655 63.3577 104.272 62.8741 104.169 62.765C103.912 62.4907 103.656 62.2141 103.343 61.9989C102.709 61.5641 101.967 61.307 101.195 61.246C100.872 61.2205 100.435 61.265 100.131 61.451C99.8267 61.265 99.39 61.2205 99.067 61.246C98.295 61.307 97.5532 61.5641 96.9195 61.9989C96.606 62.2141 96.3507 62.4907 96.0932 62.765C95.9907 62.8741 95.6072 63.3577 95.4191 63.2668C95.357 63.2368 95.3444 62.9999 95.3315 62.9362C95.2704 62.6324 95.2128 62.3282 95.1602 62.0229C94.9079 60.5585 94.748 59.0816 94.3999 57.6339C94.2987 57.6339 94.2098 59.5623 94.1985 59.7419C94.1525 60.4716 94.0988 61.1851 94.1675 61.9155C94.2858 63.1753 94.4091 64.7551 95.3577 65.7172C96.2148 66.5865 97.4592 66.7683 98.5325 67.317C98.6707 67.3877 98.8541 67.4749 99.0517 67.5464C99.26 67.7071 99.673 67.8168 100.149 67.8168C100.648 67.8168 101.078 67.6962 101.275 67.5224C101.448 67.456 101.607 67.3799 101.73 67.317C102.803 66.7682 104.047 66.5865 104.904 65.7172C105.853 64.7551 105.976 63.1753 106.095 61.9155C106.163 61.1851 106.11 60.4716 106.064 59.7419C106.052 59.5623 105.963 57.6339 105.862 57.6339Z" fill="#005249"/>
<path fill-rule="evenodd" clip-rule="evenodd" d="M100.131 53.4167C103.483 53.4167 106.2 54.9364 106.2 56.811C106.2 57.0764 106.145 57.3346 106.042 57.5824C105.418 56.0795 103.008 54.9596 100.131 54.9596C97.2539 54.9596 94.8444 56.0795 94.2199 57.5825C94.117 57.3347 94.0625 57.0764 94.0625 56.811C94.0625 54.9364 96.7795 53.4167 100.131 53.4167Z" fill="#007B55"/>
<path d="M100.338 47.8627C103.408 47.8627 108.764 52.4036 108.772 57.2559C108.777 59.8765 107.782 61.4769 105.789 62.057C106.418 56.3083 102.539 55.0024 100.129 53.6038C97.7163 55.0024 93.8437 56.3083 94.4751 62.057C92.4819 61.5426 91.4876 59.9423 91.4922 57.2559C91.5005 52.4036 96.8484 47.8627 99.9265 47.8627C99.9952 47.8627 100.064 47.8657 100.131 47.8717C100.2 47.8657 100.269 47.8627 100.338 47.8627Z" fill="#005249"/>
</g>
<path d="M3.00001 93.8743C2.99706 96.1053 3.43589 98.3147 4.29119 100.375C5.14648 102.436 6.40131 104.306 7.98328 105.88C8.11586 106.011 8.25144 106.141 8.38853 106.269C9.21462 107.041 10.1159 107.728 11.079 108.32C11.2639 108.434 11.4488 108.544 11.6384 108.65C12.6123 109.199 13.6385 109.65 14.7017 109.995C14.885 110.055 15.0715 110.112 15.2579 110.165C18.6376 111.134 22.2345 111.033 25.5543 109.875C25.619 109.852 25.6837 109.829 25.7469 109.806C28.6612 108.746 31.2288 106.906 33.1702 104.488C35.1116 102.07 36.3524 99.1651 36.7576 96.0906C37.1628 93.016 36.7168 89.8892 35.4681 87.0505C34.2195 84.2119 32.2161 81.7701 29.676 79.9911C27.1359 78.212 24.1564 77.1639 21.062 76.9607C17.9675 76.7576 14.8766 77.4072 12.1257 78.8389C9.37477 80.2705 7.06933 82.4294 5.46029 85.0805C3.85125 87.7315 3.00028 90.7732 3.00001 93.8743V93.8743Z" fill="#919EAB" fill-opacity="0.24"/>
<path d="M3.59962 93.8737C3.59677 96.0256 4.02006 98.1568 4.84505 100.144C5.67004 102.132 6.88041 103.936 8.40633 105.454C8.5342 105.58 8.66498 105.706 8.79721 105.83C9.59403 106.574 10.4634 107.237 11.3924 107.808C11.5707 107.918 11.7491 108.023 11.9319 108.126C12.8713 108.655 13.8611 109.09 14.8867 109.424C15.0635 109.481 15.2434 109.536 15.4232 109.587C18.6831 110.522 22.1526 110.424 25.3548 109.308C25.4172 109.285 25.4796 109.263 25.5405 109.241C28.3516 108.218 30.8282 106.444 32.7008 104.111C34.5734 101.779 35.7703 98.9771 36.1611 96.0114C36.5519 93.0458 36.1217 90.0298 34.9173 87.2917C33.713 84.5536 31.7805 82.1984 29.3304 80.4824C26.8803 78.7664 24.0064 77.7554 21.0216 77.5594C18.0368 77.3635 15.0554 77.9901 12.4019 79.371C9.74851 80.752 7.52475 82.8343 5.97273 85.3915C4.4207 87.9486 3.59988 90.8825 3.59962 93.8737V93.8737Z" fill="#C8FACD"/>
<mask id="mask2_8429_53097" style="mask-type:alpha" maskUnits="userSpaceOnUse" x="3" y="77" width="34" height="34">
<path d="M3.59962 93.8737C3.59677 96.0256 4.02006 98.1568 4.84505 100.144C5.67004 102.132 6.88041 103.936 8.40633 105.454C8.5342 105.58 8.66498 105.706 8.79721 105.83C9.59403 106.574 10.4634 107.237 11.3924 107.808C11.5707 107.918 11.7491 108.023 11.9319 108.126C12.8713 108.655 13.8611 109.09 14.8867 109.424C15.0635 109.481 15.2434 109.536 15.4232 109.587C18.6831 110.522 22.1526 110.424 25.3548 109.308C25.4172 109.285 25.4796 109.263 25.5405 109.241C28.3516 108.218 30.8282 106.444 32.7008 104.111C34.5734 101.779 35.7703 98.9771 36.1611 96.0114C36.5519 93.0458 36.1217 90.0298 34.9173 87.2917C33.713 84.5536 31.7805 82.1984 29.3304 80.4824C26.8803 78.7664 24.0064 77.7554 21.0216 77.5594C18.0368 77.3635 15.0554 77.9901 12.4019 79.371C9.74851 80.752 7.52475 82.8343 5.97273 85.3915C4.4207 87.9486 3.59988 90.8825 3.59962 93.8737V93.8737Z" fill="white"/>
</mask>
<g mask="url(#mask2_8429_53097)">
<path d="M20.1763 85.9028C23.3575 85.9028 25.9363 88.4817 25.9363 91.6628L25.9364 92.2971C26.5201 92.395 26.9649 92.9027 26.9649 93.5143V94.9543C26.9649 95.5768 26.504 96.0917 25.9049 96.1763C25.6923 98.2134 24.418 99.9348 22.645 100.777L22.6449 102.669H23.0563C27.1464 102.669 30.462 105.984 30.462 110.074V111H9.89062V110.074C9.89062 105.984 13.2063 102.669 17.2963 102.669H17.7078L17.7078 100.777C15.9348 99.9348 14.6603 98.2135 14.4477 96.1763C13.8486 96.0917 13.3878 95.5768 13.3878 94.9543V93.5143C13.3878 92.9027 13.8326 92.395 14.4164 92.297L14.4163 91.6628C14.4163 88.4817 16.9952 85.9028 20.1763 85.9028Z" fill="#FBCDBE"/>
<path d="M15.1363 103.424C15.1363 105.099 17.4158 106.456 20.2278 106.456C23.0397 106.456 25.3192 105.099 25.3192 103.424C25.3192 103.284 25.3032 103.146 25.2723 103.011C28.2799 103.953 30.462 106.761 30.462 110.08V111H9.89062V110.08C9.89062 106.721 12.1266 103.884 15.1912 102.977C15.1551 103.123 15.1363 103.272 15.1363 103.424Z" fill="#5BE584"/>
<path opacity="0.24" d="M18.2352 97.5388C18.344 98.5151 19.172 99.2742 20.1773 99.2742C21.1858 99.2742 22.0158 98.5104 22.1205 97.5298C22.1289 97.4509 22.0408 97.3199 21.9303 97.3199C20.3984 97.3199 19.2247 97.3199 18.4377 97.3199C18.3266 97.3199 18.2243 97.4412 18.2352 97.5388Z" fill="#005249"/>
<path opacity="0.24" fill-rule="evenodd" clip-rule="evenodd" d="M18.9434 95.5714C18.9434 96.0259 19.496 96.3943 20.1776 96.3943C20.8593 96.3943 21.4119 96.0259 21.4119 95.5714" fill="#005249"/>
<path d="M17.5019 94.3371C17.8427 94.3371 18.1191 94.0608 18.1191 93.7199C18.1191 93.3791 17.8427 93.1028 17.5019 93.1028C17.1611 93.1028 16.8848 93.3791 16.8848 93.7199C16.8848 94.0608 17.1611 94.3371 17.5019 94.3371Z" fill="#005249"/>
<path d="M22.8515 94.3371C23.1924 94.3371 23.4687 94.0608 23.4687 93.7199C23.4687 93.3791 23.1924 93.1028 22.8515 93.1028C22.5107 93.1028 22.2344 93.3791 22.2344 93.7199C22.2344 94.0608 22.5107 94.3371 22.8515 94.3371Z" fill="#005249"/>
<path d="M16.0238 92.3991C16.4265 91.8325 17.5304 91.5148 18.4813 91.7483C18.5917 91.7754 18.7031 91.7079 18.7302 91.5976C18.7573 91.4872 18.6898 91.3758 18.5795 91.3487C17.4751 91.0775 16.1968 91.4454 15.6884 92.1608C15.6226 92.2534 15.6443 92.3818 15.737 92.4476C15.8296 92.5134 15.958 92.4917 16.0238 92.3991Z" fill="#005249"/>
<path d="M24.3297 92.3991C23.927 91.8325 22.8231 91.5148 21.8722 91.7483C21.7618 91.7754 21.6504 91.7079 21.6233 91.5976C21.5962 91.4872 21.6637 91.3758 21.774 91.3487C22.8784 91.0775 24.1567 91.4454 24.6651 92.1608C24.7309 92.2534 24.7092 92.3818 24.6166 92.4476C24.524 92.5134 24.3955 92.4917 24.3297 92.3991Z" fill="#005249"/>
<mask id="mask3_8429_53097" style="mask-type:alpha" maskUnits="userSpaceOnUse" x="6" y="82" width="28" height="29">
<path d="M33.7539 82.2V111H30.4625V110.074C30.4625 105.984 27.1468 102.669 23.0567 102.669H22.6453L22.6454 100.777C24.4485 99.9204 25.736 98.1546 25.9153 96.072C26.5095 95.9831 26.9653 95.4705 26.9653 94.8514V93.5142C26.9653 92.9027 26.5205 92.395 25.9368 92.297L25.9367 91.6628C25.9367 90.8456 25.7666 90.0681 25.4597 89.3639C24.4386 87.6514 15.786 87.734 14.9012 89.347C14.5897 90.0557 14.4168 90.8391 14.4168 91.6628L14.4168 92.297C13.833 92.3949 13.3882 92.9026 13.3882 93.5142V94.8514C13.3882 95.4705 13.8439 95.9831 14.4382 96.072C14.6175 98.1546 15.905 99.9205 17.7082 100.777L17.7082 102.669H17.2967C13.2476 102.669 9.95743 105.918 9.89203 109.952L9.89104 110.074V111H6.59961V82.2H33.7539Z" fill="white"/>
</mask>
<g mask="url(#mask3_8429_53097)">
<path fill-rule="evenodd" clip-rule="evenodd" d="M19.2704 82.4056H21.1871C23.12 82.4056 24.7922 83.7511 25.206 85.6391L26.143 89.9142H14.3145L15.2515 85.6391C15.6653 83.7511 17.3375 82.4056 19.2704 82.4056Z" fill="#005249"/>
<path d="M20.1775 97.1142C27.1079 97.1142 32.726 94.4663 32.726 91.1999C32.726 87.9336 27.1079 85.2856 20.1775 85.2856C13.2471 85.2856 7.62891 87.9336 7.62891 91.1999C7.62891 94.4663 13.2471 97.1142 20.1775 97.1142Z" fill="#005249"/>
<path d="M20.176 93.2057C23.698 93.2057 26.5531 92.0545 26.5531 90.6343C26.5531 89.2141 23.698 88.0629 20.176 88.0629C16.654 88.0629 13.7988 89.2141 13.7988 90.6343C13.7988 92.0545 16.654 93.2057 20.176 93.2057Z" fill="#007B55"/>
</g>
<path opacity="0.7" d="M19.324 93.7713C19.324 94.7693 18.4754 95.5787 17.0614 95.5787H16.7786C15.3646 95.5787 14.7988 94.769 14.7988 93.7713C14.7988 92.7731 14.9309 91.964 16.9106 91.964H17.2122C19.1919 91.964 19.324 92.7731 19.324 93.7713Z" fill="#005249"/>
<path opacity="0.7" d="M25.658 93.7713C25.658 94.7693 24.8097 95.5787 23.3954 95.5787H23.1125C21.6985 95.5787 21.1328 94.769 21.1328 93.7713C21.1328 92.7731 21.2649 91.964 23.2446 91.964H23.5462C25.5256 91.964 25.658 92.7731 25.658 93.7713Z" fill="#005249"/>
<path d="M17.213 91.6628C19.44 91.6628 19.6263 92.7045 19.6263 93.7714C19.6263 95.0128 18.5721 95.88 17.0622 95.88H16.7793C15.3509 95.88 14.498 95.0917 14.498 93.7714C14.498 92.7045 14.6844 91.6628 16.9114 91.6628H17.213ZM17.213 92.265H16.9114C15.1374 92.265 15.1019 92.9035 15.1012 93.7211L15.1012 93.7714C15.1012 94.4585 15.3922 95.2775 16.7793 95.2775H17.0622C18.2169 95.2775 19.0232 94.6582 19.0232 93.7714L19.0232 93.6962C19.0232 93.6879 19.0231 93.6796 19.0231 93.6713L19.0228 93.6219C19.0167 92.8524 18.9146 92.265 17.213 92.265Z" fill="#005249"/>
<path d="M23.545 91.6628C25.772 91.6628 25.9584 92.7045 25.9584 93.7714C25.9584 95.0128 24.9041 95.88 23.3942 95.88H23.1114C21.6829 95.88 20.8301 95.0917 20.8301 93.7714C20.8301 92.7045 21.0164 91.6628 23.2434 91.6628H23.545ZM23.545 92.265H23.2434C21.4694 92.265 21.4339 92.9035 21.4332 93.7211L21.4332 93.7714C21.4332 94.4585 21.7245 95.2775 23.1114 95.2775H23.3942C24.5489 95.2775 25.3553 94.6582 25.3553 93.7714L25.3552 93.6962C25.3552 93.6879 25.3552 93.6796 25.3551 93.6713L25.3549 93.6219C25.3487 92.8524 25.2466 92.265 23.545 92.265Z" fill="#005249"/>
<path d="M13.8953 92.2653C13.9659 92.1948 14.7379 91.6628 16.9109 91.6628C18.7329 91.6628 19.1186 91.8562 19.7024 92.1484L19.7452 92.17C19.7857 92.1846 19.9933 92.2568 20.2361 92.2647C20.4573 92.255 20.6465 92.1937 20.7018 92.174C21.3682 91.8426 22.0204 91.6628 23.5452 91.6628C25.7182 91.6628 26.4902 92.1948 26.5608 92.2653C26.7275 92.2653 26.8623 92.3999 26.8623 92.5665V92.8677C26.8623 93.0343 26.7275 93.169 26.5608 93.169C26.5608 93.169 25.9576 93.169 25.9576 93.4702C25.9576 93.7714 25.6561 93.0343 25.6561 92.8677V92.5743C25.2883 92.4304 24.63 92.2653 23.5452 92.2653C22.3366 92.2653 21.7346 92.3816 21.2183 92.5993L21.2241 92.6135L20.9674 92.7171L21.2238 92.8208L20.9975 93.3793L20.718 93.2662C20.693 93.2561 20.6392 93.238 20.5645 93.2192C20.3563 93.1666 20.1422 93.1507 19.9529 93.1904C19.8834 93.205 19.819 93.2269 19.7598 93.2564L19.4901 93.3912L19.2203 92.8524L19.49 92.7176L19.4907 92.7173L19.2323 92.6129L19.2405 92.5926C18.7952 92.3803 18.3846 92.2653 16.9109 92.2653C15.8262 92.2653 15.1678 92.4303 14.8 92.5742V92.8677C14.8 93.0343 14.4984 93.7714 14.4984 93.4702C14.4984 93.169 13.8953 93.169 13.8953 93.169C13.7288 93.169 13.5938 93.0343 13.5938 92.8677V92.5665C13.5938 92.3999 13.7288 92.2653 13.8953 92.2653Z" fill="#005249"/>
</g>
</svg>
